<?xml version="1.0" standalone="no"?>
<!DOCTYPE svg PUBLIC "-//W3C//DTD SVG 20010904//EN"
 "http://www.w3.org/TR/2001/REC-SVG-20010904/DTD/svg10.dtd">
<svg version="1.0" xmlns="http://www.w3.org/2000/svg"
 width="700.000000pt" height="700.000000pt" viewBox="0 0 700.000000 700.000000"
 preserveAspectRatio="xMidYMid meet">
<metadata>
Created by potrace 1.11, written by Peter Selinger 2001-2013
</metadata>
<g transform="translate(0.000000,700.000000) scale(0.100000,-0.100000)"
fill="#000000" stroke="none">
<path d="M4027 5934 c-1 -1 -231 -5 -512 -8 -502 -6 -616 -10 -705 -21 -379
-47 -702 -225 -948 -520 -58 -70 -162 -232 -211 -327 -66 -129 -153 -348 -176
-444 -3 -10 -14 -55 -25 -99 -11 -44 -23 -96 -26 -115 -3 -19 -7 -42 -9 -50
-19 -67 -50 -390 -36 -374 4 5 28 36 53 69 125 166 304 277 544 339 166 43
225 46 774 39 1155 -12 2222 -3 2494 22 39 3 72 8 76 10 3 2 26 6 50 10 58 8
136 28 230 59 448 145 864 483 1167 948 109 168 242 431 223 443 -5 3 -21 5
-37 4 -15 -1 -287 2 -603 6 -497 6 -2318 13 -2323 9z"/>
<path d="M2019 3766 c-2 -2 -33 -7 -69 -10 -488 -50 -888 -234 -1211 -555
-186 -186 -303 -349 -429 -600 -107 -211 -204 -490 -244 -701 -3 -14 -7 -34
-9 -45 -3 -11 -8 -40 -12 -65 -4 -25 -9 -53 -10 -62 -2 -9 -7 -48 -10 -85 -4
-37 -9 -77 -12 -88 -7 -30 -13 -445 -6 -461 3 -10 12 -2 25 23 46 88 192 303
283 418 276 348 575 563 905 651 58 16 133 18 695 20 347 1 644 5 660 8 17 3
46 9 65 12 141 22 366 105 505 187 107 63 269 177 339 237 129 111 285 264
376 370 30 35 60 68 65 74 75 78 334 450 405 581 18 33 36 64 41 70 5 5 9 13
9 17 0 8 -2353 11 -2361 4z"/>
</g>
</svg>
